<svg width="945" height="685" viewBox="0 0 945 685" fill="none" xmlns="http://www.w3.org/2000/svg">
<rect width="945" height="685" fill="white"/>
<circle cx="548" cy="275.809" r="12.5" fill="#0D225D" stroke="#0D225D"/>
<path fill-rule="evenodd" clip-rule="evenodd" d="M346.699 256.959C352.941 257.979 357.179 263.887 356.164 270.156C351.935 296.277 348.337 345.785 369.011 390.995C389.132 434.998 422.67 460.534 451.847 463.882C458.131 464.603 462.643 470.303 461.925 476.613C461.207 482.924 455.53 487.454 449.247 486.733C409.712 482.196 370.515 449.402 348.196 400.593C324.697 349.205 329.061 294.229 333.557 266.465C334.572 260.196 340.456 255.94 346.699 256.959Z" fill="#0D225D"/>
<path fill-rule="evenodd" clip-rule="evenodd" d="M522.982 301.956C531.805 294.609 544.621 290.718 558.521 296.836C568.69 301.313 575.321 311.207 577.816 324.289C580.28 337.211 579.004 354.181 572.997 375.676C567.859 394.062 557.25 411.593 546.575 425.75C535.843 439.982 524.494 451.524 517.078 457.978C512.298 462.137 505.032 461.657 500.848 456.907C496.664 452.156 497.146 444.934 501.925 440.775C508.147 435.36 518.404 424.986 528.169 412.036C537.99 399.011 546.77 384.096 550.833 369.557C556.327 349.896 556.776 336.733 555.215 328.547C553.684 320.52 550.539 318.329 549.207 317.742C544.704 315.761 541.091 316.704 537.754 319.482C532.885 323.537 525.631 322.901 521.552 318.061C517.473 313.221 518.113 306.011 522.982 301.956Z" fill="#0D225D"/>
<path fill-rule="evenodd" clip-rule="evenodd" d="M499.209 227.814C499.167 227.876 499.207 227.817 499.206 227.819L499.192 227.839L499.167 227.876C499.148 227.904 499.123 227.941 499.094 227.986C499.034 228.075 498.953 228.196 498.853 228.349C498.652 228.654 498.373 229.084 498.024 229.636C497.326 230.738 496.348 232.324 495.168 234.354C492.808 238.411 489.624 244.258 486.227 251.575C479.452 266.169 471.719 286.835 468.078 310.953C465.072 330.866 464.045 347.887 466 361.01C467.917 373.871 473.357 386.501 486.493 391.21C502.58 396.978 515.204 386.007 521.985 376.27C529.203 365.908 533.904 351.959 534.959 339.491C535.492 333.186 530.817 327.642 524.517 327.109C518.217 326.575 512.678 331.254 512.145 337.559C511.4 346.368 507.924 356.389 503.203 363.167C498.047 370.57 494.971 369.91 494.215 369.639C493.122 369.247 490.128 367.582 488.645 357.63C487.201 347.941 487.809 333.633 490.716 314.376C493.944 292.995 500.847 274.462 506.99 261.231C510.052 254.636 512.899 249.415 514.954 245.882C515.981 244.117 516.807 242.777 517.361 241.903C517.638 241.466 517.847 241.145 517.977 240.946C518.043 240.846 518.089 240.777 518.114 240.739C518.127 240.721 518.134 240.71 518.137 240.706C521.686 235.479 520.336 228.36 515.115 224.799C509.891 221.236 502.77 222.586 499.209 227.814Z" fill="#0D225D"/>
<path fill-rule="evenodd" clip-rule="evenodd" d="M463.758 213.573C466.018 208.245 463.531 202.094 458.203 199.835C452.875 197.575 446.725 200.062 444.465 205.39C438.698 218.986 430.88 241.959 425.827 267.389C425.295 270.067 424.792 272.784 424.323 275.533C422.585 276.982 420.263 278.693 417.591 280.253C413.489 282.649 409.067 284.395 405.001 284.691C401.688 284.932 397.763 283.752 393.75 281.594C393.766 281.245 393.783 280.897 393.8 280.549C395.004 256.174 399.143 233.725 402.521 220.731C403.978 215.13 400.618 209.409 395.017 207.952C389.416 206.496 383.695 209.856 382.239 215.457C378.522 229.751 374.147 253.62 372.868 279.515C371.598 305.227 373.314 334.087 382.635 357.675C384.761 363.058 390.848 365.697 396.231 363.57C401.613 361.443 404.252 355.356 402.125 349.974C396.009 334.496 393.593 315.329 393.463 295.802C397.321 297.206 401.579 298.073 405.952 297.755C411.79 297.33 417.319 295.245 421.931 292.821C420.047 310.892 420.16 329.451 424.059 346.137C425.376 351.772 431.011 355.273 436.647 353.957C442.282 352.64 445.783 347.004 444.466 341.369C439.695 320.947 441.591 295.59 446.383 271.473C451.139 247.536 458.516 225.934 463.758 213.573Z" fill="#0D225D"/>
<path d="M539 389C543.142 391.541 552.736 396.491 557.982 395.961C563.228 395.43 573.513 391.099 578 389" stroke="#0D225D" stroke-width="22" stroke-linecap="round"/>
</svg>
