<svg width="2408" height="685" viewBox="0 0 2408 685" fill="none" xmlns="http://www.w3.org/2000/svg">
<rect width="2408" height="685" fill="white"/>
<circle cx="629" cy="275.81" r="12.5" fill="#0D225D" stroke="#0D225D"/>
<path fill-rule="evenodd" clip-rule="evenodd" d="M427.699 256.96C433.941 257.98 438.179 263.888 437.164 270.157C432.935 296.278 429.337 345.786 450.011 390.996C470.132 434.999 503.67 460.535 532.847 463.883C539.131 464.604 543.643 470.304 542.925 476.614C542.207 482.925 536.53 487.455 530.247 486.734C490.712 482.197 451.515 449.403 429.196 400.594C405.697 349.206 410.061 294.23 414.557 266.466C415.572 260.197 421.456 255.941 427.699 256.96Z" fill="#0D225D"/>
<path fill-rule="evenodd" clip-rule="evenodd" d="M603.982 301.957C612.805 294.61 625.621 290.719 639.521 296.837C649.69 301.314 656.321 311.208 658.816 324.29C661.28 337.212 660.004 354.182 653.997 375.677C648.859 394.063 638.25 411.594 627.575 425.751C616.843 439.982 605.494 451.525 598.078 457.979C593.298 462.138 586.032 461.658 581.848 456.908C577.664 452.157 578.146 444.935 582.925 440.776C589.147 435.361 599.404 424.987 609.169 412.037C618.99 399.012 627.77 384.097 631.833 369.558C637.327 349.897 637.776 336.734 636.215 328.548C634.684 320.521 631.539 318.33 630.207 317.743C625.704 315.762 622.091 316.705 618.754 319.483C613.885 323.538 606.631 322.902 602.552 318.062C598.473 313.222 599.113 306.012 603.982 301.957Z" fill="#0D225D"/>
<path fill-rule="evenodd" clip-rule="evenodd" d="M580.209 227.815C580.167 227.877 580.207 227.818 580.206 227.82L580.192 227.84L580.167 227.877C580.148 227.905 580.123 227.942 580.094 227.987C580.034 228.076 579.953 228.197 579.853 228.349C579.652 228.655 579.373 229.085 579.024 229.636C578.326 230.739 577.348 232.325 576.168 234.355C573.808 238.412 570.624 244.259 567.227 251.576C560.452 266.17 552.719 286.836 549.078 310.954C546.072 330.867 545.045 347.888 547 361.011C548.917 373.872 554.357 386.502 567.493 391.211C583.58 396.979 596.204 386.008 602.985 376.271C610.203 365.909 614.904 351.96 615.959 339.492C616.492 333.187 611.817 327.643 605.517 327.11C599.217 326.576 593.678 331.255 593.145 337.56C592.4 346.369 588.924 356.39 584.203 363.168C579.047 370.571 575.971 369.911 575.215 369.64C574.122 369.248 571.128 367.583 569.645 357.631C568.201 347.942 568.809 333.634 571.716 314.377C574.944 292.996 581.847 274.463 587.99 261.232C591.052 254.637 593.899 249.416 595.954 245.883C596.981 244.118 597.807 242.778 598.361 241.904C598.638 241.467 598.847 241.146 598.977 240.947C599.043 240.847 599.089 240.778 599.114 240.74C599.127 240.722 599.134 240.711 599.137 240.707C602.686 235.48 601.336 228.361 596.115 224.8C590.891 221.237 583.77 222.587 580.209 227.815Z" fill="#0D225D"/>
<path fill-rule="evenodd" clip-rule="evenodd" d="M544.758 213.573C547.018 208.245 544.531 202.094 539.203 199.835C533.875 197.575 527.725 200.062 525.465 205.39C519.698 218.986 511.88 241.959 506.827 267.389C506.295 270.067 505.792 272.784 505.323 275.533C503.585 276.982 501.263 278.693 498.591 280.253C494.489 282.649 490.067 284.395 486.001 284.691C482.688 284.932 478.763 283.752 474.75 281.594C474.766 281.245 474.783 280.897 474.8 280.549C476.004 256.174 480.143 233.725 483.521 220.731C484.978 215.13 481.618 209.409 476.017 207.952C470.416 206.496 464.695 209.856 463.239 215.457C459.522 229.751 455.147 253.62 453.868 279.515C452.598 305.227 454.314 334.087 463.635 357.675C465.761 363.058 471.848 365.697 477.231 363.57C482.613 361.443 485.252 355.356 483.125 349.974C477.009 334.496 474.593 315.329 474.463 295.802C478.321 297.206 482.579 298.073 486.952 297.755C492.79 297.33 498.319 295.245 502.931 292.821C501.047 310.892 501.16 329.451 505.059 346.137C506.376 351.772 512.011 355.273 517.647 353.957C523.282 352.64 526.783 347.004 525.466 341.369C520.695 320.947 522.591 295.59 527.383 271.473C532.139 247.536 539.516 225.934 544.758 213.573Z" fill="#0D225D"/>
<path d="M620 389C624.142 391.541 633.736 396.491 638.982 395.961C644.228 395.43 654.513 391.099 659 389" stroke="#0D225D" stroke-width="22" stroke-linecap="round"/>
<path d="M1894.07 244.429H1893.32V245.179V377.468V378.218H1894.07H1916.23H1916.98V377.468V367.13C1924.85 374.826 1937.81 380.433 1954.12 380.433C1973.34 380.433 1984.66 371.695 1991.13 361.015C1997.57 350.386 1999.18 337.881 1999.18 330.269V328.053C1999.18 320.441 1997.57 307.936 1991.13 297.307C1984.66 286.627 1973.34 277.889 1954.12 277.889C1937.81 277.889 1924.85 283.496 1916.98 291.192V245.179V244.429H1916.23H1894.07ZM1921.76 348.084C1919.19 343.16 1918.53 336.895 1918.53 329.383V328.939C1918.53 325.892 1918.91 322.175 1919.62 318.645C1920.33 315.105 1921.37 311.817 1922.64 309.592C1925.08 305.35 1929.35 302.228 1934.4 300.162C1939.45 298.099 1945.23 297.116 1950.57 297.116C1965.09 297.116 1975.53 309.7 1975.53 328.053C1975.53 339.368 1973.11 346.758 1969 351.67C1964.89 356.58 1958.99 359.131 1951.76 360.555C1940.44 362.732 1928.42 360.108 1921.76 348.084Z" fill="#0D225D" stroke="#0D225D" stroke-width="1.5"/>
<path d="M1892.89 243.25H1892.14V244V378.646V379.396H1892.89H1917.4H1918.15V378.646V369.796C1926.37 376.772 1938.85 381.612 1954.12 381.612C1973.78 381.612 1985.46 372.636 1992.13 361.626C1998.73 350.746 2000.36 338.003 2000.36 330.269V328.053C2000.36 320.319 1998.73 307.576 1992.13 296.696C1985.46 285.686 1973.78 276.71 1954.12 276.71C1938.85 276.71 1926.37 281.55 1918.15 288.526V244V243.25H1917.4H1892.89ZM1915.47 365.28V376.717H1894.82V245.929H1915.47V293.042V294.967L1916.78 293.549C1917.15 293.147 1917.53 292.749 1917.93 292.356C1925.47 284.927 1938.08 279.389 1954.12 279.389C1972.78 279.389 1983.63 287.824 1989.84 298.084C1996.09 308.395 1997.68 320.597 1997.68 328.053V330.269C1997.68 337.725 1996.09 349.927 1989.84 360.238C1983.63 370.498 1972.78 378.933 1954.12 378.933C1938.08 378.933 1925.47 373.395 1917.93 365.966C1917.53 365.573 1917.15 365.175 1916.78 364.773L1915.47 363.355V365.28ZM1921.34 308.844L1921.33 308.846C1919.95 311.274 1918.87 314.744 1918.15 318.349C1917.42 321.965 1917.03 325.782 1917.03 328.939V329.383C1917.03 336.935 1917.69 343.518 1920.43 348.786L1920.44 348.794L1920.44 348.803C1927.52 361.589 1940.32 364.282 1952.04 362.028L1952.05 362.027C1959.44 360.571 1965.73 357.915 1970.15 352.632C1974.57 347.351 1977.03 339.562 1977.03 328.053C1977.03 309.179 1966.19 295.616 1950.57 295.616C1945.06 295.616 1939.09 296.627 1933.83 298.774C1928.59 300.918 1923.99 304.222 1921.34 308.844ZM1951.53 359.398C1940.53 361.513 1929.13 358.946 1922.8 347.527C1920.38 342.873 1919.7 336.859 1919.7 329.383V328.939C1919.7 325.979 1920.08 322.34 1920.77 318.878C1921.48 315.387 1922.48 312.241 1923.66 310.176C1925.93 306.235 1929.95 303.256 1934.85 301.253C1939.74 299.255 1945.36 298.294 1950.57 298.294C1964.22 298.294 1974.35 310.112 1974.35 328.053C1974.35 339.214 1971.96 346.292 1968.09 350.913C1964.23 355.53 1958.63 357.999 1951.53 359.398Z" fill="#0D225D" stroke="#0D225D" stroke-width="1.5"/>
<path d="M1645.43 253.292H1644.68V254.042V377.467V378.217H1645.43H1756.97H1757.72V377.467V357.303V356.553H1756.97H1667.1V254.042V253.292H1666.35H1645.43Z" fill="#0D225D" stroke="#0D225D" stroke-width="1.5"/>
<path d="M1756.22 358.053V376.717H1646.18V254.792H1665.6V357.303V358.053H1666.35H1756.22ZM1758.09 355.374H1668.22V252.863V252.113H1667.47H1644.31H1643.56V252.863V378.646V379.396H1644.31H1758.09H1758.84V378.646V356.124V355.374H1758.09Z" fill="#0D225D" stroke="#0D225D" stroke-width="1.5"/>
<path d="M1443.55 244.429H1442.8V245.179V377.468V378.218H1443.55H1465.71H1466.46V377.468V321C1466.67 318.841 1466.89 317.182 1467.92 314.898C1471.41 309.562 1475.75 305.03 1481.16 302.123C1486.57 299.213 1493.11 297.906 1501.05 299.102C1507.5 300.086 1512.31 302.094 1515.5 305.365C1518.68 308.621 1520.35 313.23 1520.35 319.633V377.468V378.218H1521.1H1543.26H1544.01V377.468V319.633C1544.01 312.053 1542.96 301.56 1537.04 292.949C1531.08 284.285 1520.3 277.667 1501.16 277.667C1485.06 277.667 1474.1 283.082 1466.46 290.919V245.179V244.429H1465.71H1443.55Z" fill="#0D225D" stroke="#0D225D" stroke-width="1.5"/>
<path d="M1442.37 243.25H1441.62V244V378.646V379.396H1442.37H1466.89H1467.64V378.646V321.059C1467.84 318.996 1468.04 317.51 1468.95 315.466C1472.36 310.277 1476.55 305.936 1481.72 303.161C1486.89 300.379 1493.17 299.107 1500.87 300.267C1507.2 301.232 1511.71 303.174 1514.65 306.189C1517.56 309.164 1519.18 313.441 1519.18 319.633V378.646V379.396H1519.93H1544.44H1545.19V378.646V319.633C1545.19 311.98 1544.14 301.192 1538.01 292.282C1531.79 283.234 1520.6 276.488 1501.16 276.488C1486.11 276.488 1475.39 281.142 1467.64 288.147V244V243.25H1466.89H1442.37ZM1464.96 320.962V376.717H1444.3V245.929H1464.96V292.82V294.783L1466.27 293.32C1466.64 292.899 1467.03 292.484 1467.42 292.075L1466.89 291.554L1467.42 292.075C1474.77 284.482 1485.37 279.167 1501.16 279.167C1519.91 279.167 1530.18 285.623 1535.8 293.799C1541.46 302.029 1542.51 312.145 1542.51 319.633V376.717H1521.85V319.633C1521.85 312.962 1520.1 307.931 1516.57 304.318C1513.06 300.72 1507.89 298.628 1501.27 297.619L1501.27 297.618C1493.03 296.377 1486.17 297.729 1480.45 300.802C1474.74 303.869 1470.22 308.625 1466.63 314.126L1466.6 314.174L1466.58 314.226C1465.42 316.777 1465.18 318.649 1464.96 320.888L1464.96 320.925V320.962Z" fill="#0D225D" stroke="#0D225D" stroke-width="1.5"/>
<path d="M1406.55 318.683L1406.67 319.275H1407.28H1429.44H1430.34L1430.18 318.39C1428.04 306.71 1422.36 296.464 1413.49 289.14C1404.61 281.814 1392.58 277.445 1377.81 277.445C1360.79 277.445 1347.41 283.159 1338.27 292.489C1329.14 301.816 1324.32 314.698 1324.32 328.939C1324.32 343.18 1329.14 356.063 1338.27 365.389C1347.41 374.72 1360.79 380.433 1377.81 380.433C1405.61 380.433 1423.65 365.152 1429.28 343.532L1429.52 342.593H1428.55H1405.95H1405.42L1405.24 343.092C1403.41 348.268 1400.35 352.276 1395.89 355.001C1391.42 357.733 1385.47 359.212 1377.81 359.212C1367.08 359.212 1359.67 356.367 1354.92 351.253C1350.17 346.128 1347.98 338.59 1347.98 328.939C1347.98 319.288 1350.17 311.75 1354.92 306.625C1359.67 301.511 1367.08 298.667 1377.81 298.667C1386.35 298.667 1392.83 300.474 1397.51 303.844C1402.17 307.204 1405.14 312.178 1406.55 318.683Z" fill="#0D225D" stroke="#0D225D" stroke-width="1.5"/>
<path d="M1355.24 350.962L1355.79 350.452C1351.32 345.63 1349.16 338.435 1349.16 328.939C1349.16 319.443 1351.32 312.248 1355.79 307.427C1360.23 302.633 1367.28 299.845 1377.81 299.845C1386.19 299.845 1392.4 301.621 1396.82 304.8C1401.2 307.957 1404.03 312.651 1405.39 318.933L1405.6 319.862L1405.72 320.453H1406.33H1430.85H1431.75L1431.59 319.568L1431.34 318.178C1429.16 306.251 1423.35 295.748 1414.24 288.23C1405.13 280.709 1392.82 276.267 1377.81 276.267C1360.52 276.267 1346.81 282.079 1337.43 291.665C1328.06 301.239 1323.14 314.432 1323.14 328.939C1323.14 343.447 1328.06 356.639 1337.43 366.214C1346.81 375.799 1360.52 381.612 1377.81 381.612C1406.12 381.612 1424.65 365.994 1430.42 343.829L1430.8 342.353L1431.05 341.414H1430.08H1405.12H1404.59L1404.41 341.913L1404.13 342.699C1402.38 347.65 1399.48 351.427 1395.28 353.995C1391.04 356.581 1385.33 358.033 1377.81 358.033C1367.28 358.033 1360.23 355.245 1355.79 350.452L1355.24 350.962ZM1407.88 317.775C1406.36 311.266 1403.26 306.14 1398.38 302.626C1393.37 299.015 1386.55 297.167 1377.81 297.167C1366.82 297.167 1358.94 300.083 1353.82 305.606C1348.72 311.117 1346.48 319.091 1346.48 328.939C1346.48 338.788 1348.72 346.762 1353.82 352.273C1358.94 357.795 1366.82 360.712 1377.81 360.712C1385.65 360.712 1391.9 359.199 1396.67 356.281C1401.32 353.445 1404.52 349.316 1406.47 344.093H1427.57C1427.55 344.167 1427.53 344.241 1427.51 344.316C1421.73 364.623 1404.46 378.933 1377.81 378.933C1361.14 378.933 1348.16 373.346 1339.34 364.34C1330.52 355.329 1325.82 342.84 1325.82 328.939C1325.82 315.038 1330.52 302.549 1339.34 293.539C1348.16 284.533 1361.14 278.945 1377.81 278.945C1406.21 278.945 1423.94 295.401 1428.47 317.497C1428.49 317.589 1428.51 317.682 1428.53 317.775H1407.88Z" fill="#0D225D" stroke="#0D225D" stroke-width="1.5"/>
<path d="M1220.57 254.042V253.292H1219.82H1101.49H1100.74V254.042V274.207V274.957H1101.49H1148.83V377.467V378.217H1149.58H1171.73H1172.48V377.467V274.957H1219.82H1220.57V274.207V254.042Z" fill="#0D225D" stroke="#0D225D" stroke-width="1.5"/>
<path d="M1100.31 276.135H1147.65V378.646V379.396H1148.4H1172.91H1173.66V378.646V276.135H1221H1221.75V275.385V252.863V252.113H1221H1100.31H1099.56V252.863V275.385V276.135H1100.31ZM1170.98 376.717H1150.33V274.207V273.457H1149.58H1102.24V254.792H1219.07V273.457H1171.73H1170.98V274.207V376.717Z" fill="#0D225D" stroke="#0D225D" stroke-width="1.5"/>
<path d="M1058.01 253.292H1057.26V254.042V377.467V378.217H1058.01H1080.17H1080.92V377.467V254.042V253.292H1080.17H1058.01Z" fill="#0D225D" stroke="#0D225D" stroke-width="1.5"/>
<path d="M1056.83 252.113H1056.08V252.863V378.646V379.396H1056.83H1081.35H1082.1V378.646V252.863V252.113H1081.35H1056.83ZM1058.76 254.792H1079.42V376.717H1058.76V254.792Z" fill="#0D225D" stroke="#0D225D" stroke-width="1.5"/>
<path d="M1037.34 337.137L1037.63 336.167H1036.62H1014.24H1013.73L1013.54 336.642C1007.95 350.846 991.283 358.99 969.478 358.99C953.759 358.99 942.855 354.87 935.87 347.481C928.878 340.084 925.688 329.279 925.688 315.644C925.688 301 928.883 289.696 935.879 282.053C942.861 274.423 953.759 270.303 969.478 270.303C982.906 270.303 992.933 272.946 1000.08 277.818C1007.2 282.677 1011.54 289.808 1013.51 298.96L1013.63 299.553H1014.24H1036.4H1037.3L1037.14 298.668C1034.45 283.991 1027.32 271.521 1015.92 262.727C1004.51 253.936 988.885 248.86 969.256 248.86C947.808 248.86 930.983 256.07 919.521 268.066C908.065 280.056 902.029 296.761 902.029 315.644C902.029 333.54 908.071 349.747 919.527 361.483C930.987 373.224 947.808 380.433 969.256 380.433C1004.97 380.433 1029.46 362.775 1037.34 337.137Z" fill="#0D225D" stroke="#0D225D" stroke-width="1.5"/>
<path d="M1038.93 335.958L1039.23 334.988H1038.21H1013.44H1012.93L1012.74 335.463L1012.44 336.21C1007.11 349.752 991.074 357.812 969.478 357.812C953.956 357.812 943.414 353.746 936.727 346.671C930.02 339.576 926.867 329.116 926.867 315.644C926.867 301.144 930.034 290.185 936.748 282.849C943.431 275.547 953.956 271.482 969.478 271.482C982.766 271.482 992.531 274.099 999.414 278.792C1006.25 283.452 1010.44 290.299 1012.35 299.207L1012.55 300.139L1012.68 300.732H1013.29H1037.81H1038.71L1038.55 299.847L1038.29 298.456C1035.56 283.523 1028.3 270.784 1016.63 261.794C1004.98 252.812 989.088 247.682 969.256 247.682C947.532 247.682 930.383 254.992 918.669 267.251C906.969 279.496 900.851 296.511 900.851 315.644C900.851 333.806 906.985 350.321 918.683 362.306C930.393 374.303 947.533 381.612 969.256 381.612C1005.38 381.612 1030.41 363.713 1038.46 337.483L1038.93 335.958ZM1035.44 297.772C1035.45 297.866 1035.47 297.959 1035.49 298.053H1014.84C1012.75 288.871 1008.26 281.583 1000.92 276.579C993.443 271.479 983.084 268.803 969.478 268.803C953.509 268.803 942.137 272.993 934.772 281.041C927.419 289.075 924.188 300.816 924.188 315.644C924.188 329.486 927.425 340.73 934.78 348.511C942.143 356.301 953.509 360.49 969.478 360.49C991.314 360.49 1008.64 352.411 1014.74 337.667H1035.59C1035.57 337.731 1035.55 337.795 1035.53 337.86L1036.24 338.095L1035.53 337.86C1027.52 362.117 1003.9 378.933 969.256 378.933C948.159 378.933 931.742 371.85 920.6 360.435C909.453 349.015 903.529 333.202 903.529 315.644C903.529 297.079 909.46 280.767 920.605 269.102C931.746 257.443 948.159 250.36 969.256 250.36C988.364 250.36 1003.5 255.232 1014.54 263.568C1025.59 271.902 1032.61 283.738 1035.44 297.772Z" fill="#0D225D" stroke="#0D225D" stroke-width="1.5"/>
<path d="M761.33 253.292H760.58V254.042V377.467V378.217H761.33H783.489H784.239V377.467V328.138H860.96V377.467V378.217H861.71H883.869H884.619V377.467V254.042V253.292H883.869H861.71H860.96V254.042V306.473H784.239V254.042V253.292H783.489H761.33Z" fill="#0D225D" stroke="#0D225D" stroke-width="1.5"/>
<path d="M785.418 378.646V329.317H859.781V378.646V379.396H860.531H885.048H885.798V378.646V252.863V252.113H885.048H860.531H859.781V252.863V305.295H785.418V252.863V252.113H784.668H760.151H759.401V252.863V378.646V379.396H760.151H784.668H785.418V378.646ZM862.46 307.223V254.792H883.119V376.717H862.46V327.388V326.638H861.71H783.489H782.739V327.388V376.717H762.08V254.792H782.739V307.223V307.973H783.489H861.71H862.46V307.223Z" fill="#0D225D" stroke="#0D225D" stroke-width="1.5"/>
<path d="M1964.75 425.388H1970.73V438.315C1972.76 436.1 1976.36 434.425 1980.96 434.425C1991.2 434.425 1992.93 443.701 1992.93 447.771V448.369C1992.93 452.439 1991.2 461.715 1980.96 461.715C1976.36 461.715 1972.76 460.04 1970.73 457.825V461.117H1964.75V425.388ZM1971.15 448.13C1971.15 450.165 1971.33 451.9 1972.05 453.277C1973.9 456.628 1977.25 457.347 1980.37 456.748C1984.32 455.97 1986.95 453.935 1986.95 447.771C1986.95 442.744 1984.08 439.213 1980.01 439.213C1977.07 439.213 1973.66 440.29 1972.29 442.684C1971.57 443.941 1971.15 446.335 1971.15 448.01V448.13Z" fill="#0D225D"/>
<path d="M1958.17 434.425V461.117H1952.19V457.825C1950.16 460.04 1946.56 461.716 1941.96 461.716C1931.72 461.716 1929.99 452.439 1929.99 448.369V447.771C1929.99 443.701 1931.72 434.425 1941.96 434.425C1946.56 434.425 1950.16 436.101 1952.19 438.315V434.425H1958.17ZM1935.97 447.771C1935.97 453.935 1938.6 455.97 1942.55 456.748C1945.67 457.347 1949.02 456.628 1950.87 453.277C1951.59 451.9 1951.77 450.165 1951.77 448.13V448.01C1951.77 446.335 1951.35 443.941 1950.63 442.684C1949.26 440.29 1945.85 439.213 1942.91 439.213C1938.84 439.213 1935.97 442.744 1935.97 447.771Z" fill="#0D225D"/>
<path d="M1896.32 427.781H1902.31V455.67H1928.22V461.117H1896.32V427.781Z" fill="#0D225D"/>
<path d="M1851.15 452.738C1853.06 454.473 1859.64 456.329 1862.16 456.329C1866.35 456.329 1869.88 456.568 1870.78 454.114C1871.67 451.72 1868.02 451.241 1862.4 450.523C1855.45 449.685 1847.97 448.788 1848.69 442.145C1849.53 434.005 1860.3 434.185 1864.07 434.424C1869.4 434.783 1874.55 436.998 1876.1 443.521H1870.78C1870.3 441.726 1868.08 440.409 1863.71 439.811C1860.6 439.392 1855.1 439.212 1854.74 442.085C1854.44 444.538 1857.49 445.017 1863.12 445.735C1870.06 446.573 1878.08 448.189 1876.82 454.593C1875.38 462.014 1865.81 461.655 1862.16 461.655C1856.05 461.655 1849.29 458.423 1847.14 455.85L1851.15 452.738Z" fill="#0D225D"/>
<path d="M1845.78 453.396C1844.52 458.303 1838.72 461.715 1831.96 461.715C1822.86 461.715 1817.71 455.61 1817.71 448.01C1817.71 440.469 1822.86 434.364 1831.96 434.364C1839.86 434.364 1845.36 439.032 1845.9 445.257V449.745H1823.82C1824.3 453.994 1826.75 456.388 1831.96 456.388C1835.37 456.388 1838.66 455.311 1839.44 453.396H1845.78ZM1824 445.017H1839.92C1839.62 441.546 1836.51 439.691 1831.96 439.691C1827.29 439.691 1824.83 441.606 1824 445.017Z" fill="#0D225D"/>
<path d="M1805.7 435.981H1811.74V461.117H1805.7V435.981ZM1804.44 428.559C1804.44 426.584 1805.58 425.028 1808.63 425.028C1811.8 425.028 1812.94 426.584 1812.94 428.559C1812.94 430.474 1811.8 432.031 1808.63 432.031C1805.58 432.031 1804.44 430.474 1804.44 428.559Z" fill="#0D225D"/>
<path d="M1774 461.596C1775.37 462.912 1779.03 464.409 1784.23 464.409C1792.37 464.409 1792.55 460.339 1792.43 457.766V457.825C1790.4 460.04 1787.4 461.716 1782.8 461.716C1772.56 461.716 1770.83 452.439 1770.83 448.369V447.771C1770.83 443.701 1772.56 434.425 1782.8 434.425C1787.4 434.425 1790.4 436.101 1792.43 438.315V434.425H1798.42V456.868C1798.42 457.107 1799.85 469.795 1784.23 469.795C1777.59 469.795 1773.04 467.64 1770.83 466.084L1774 461.596ZM1776.81 448.369C1776.81 453.337 1778.85 455.491 1782.8 456.15C1786.51 456.748 1789.86 456.03 1791.11 453.277C1791.77 451.841 1792.01 450.165 1792.01 448.13C1792.01 446.335 1791.47 444 1790.88 442.684C1789.74 440.17 1786.33 439.392 1782.8 439.991C1778.79 440.649 1776.81 442.744 1776.81 447.771V448.369Z" fill="#0D225D"/>
<path d="M1754.24 456.329C1760.04 456.329 1762.44 453.277 1762.44 448.07C1762.44 442.863 1760.04 439.811 1754.24 439.811C1748.37 439.811 1745.98 442.863 1745.98 448.07C1745.98 453.277 1748.37 456.329 1754.24 456.329ZM1740 448.07C1740 440.589 1745.08 434.425 1754.24 434.425C1763.28 434.425 1768.42 440.589 1768.42 448.07C1768.42 455.551 1763.28 461.716 1754.24 461.716C1745.08 461.716 1740 455.551 1740 448.07Z" fill="#0D225D"/>
<path d="M1728.55 425.447H1734.6V461.117H1728.55V425.447Z" fill="#0D225D"/>
<path d="M1707.78 456.329C1713.58 456.329 1715.97 453.277 1715.97 448.07C1715.97 442.863 1713.58 439.811 1707.78 439.811C1701.91 439.811 1699.52 442.863 1699.52 448.07C1699.52 453.277 1701.91 456.329 1707.78 456.329ZM1693.53 448.07C1693.53 440.589 1698.62 434.425 1707.78 434.425C1716.81 434.425 1721.96 440.589 1721.96 448.07C1721.96 455.551 1716.81 461.716 1707.78 461.716C1698.62 461.716 1693.53 455.551 1693.53 448.07Z" fill="#0D225D"/>
<path d="M1661.19 434.364H1667.18V438.254C1669.21 435.98 1672.21 434.364 1676.75 434.364C1686.99 434.364 1688.13 441.426 1688.13 445.496V461.116H1682.14V445.496C1682.14 441.965 1680.29 440.289 1676.75 439.751C1672.39 439.092 1667.54 441.785 1667.18 445.855V461.116H1661.19V434.364Z" fill="#0D225D"/>
<path d="M1627.06 425.388H1633.05V438.255C1635.08 435.981 1638.07 434.365 1642.62 434.365C1652.86 434.365 1653.99 441.427 1653.99 445.497V461.117H1648.01V445.497C1648.01 441.966 1646.15 440.29 1642.62 439.751C1638.25 439.093 1635.38 441.188 1633.47 444.12C1633.17 444.778 1633.11 445.257 1633.05 445.856V461.117H1627.06V425.388Z" fill="#0D225D"/>
<path d="M1615.11 445.197C1614.33 441.606 1611.81 439.631 1607.15 439.631C1601.28 439.631 1598.89 442.743 1598.89 448.01C1598.89 453.277 1601.28 456.389 1607.15 456.389C1611.34 456.389 1613.73 454.773 1614.75 451.9H1620.85C1619.36 457.645 1614.57 461.715 1607.15 461.715C1598.05 461.715 1592.9 455.611 1592.9 448.01C1592.9 440.409 1598.05 434.305 1607.15 434.305C1615.05 434.305 1619.95 438.973 1621.09 445.197H1615.11Z" fill="#0D225D"/>
<path d="M1588.91 453.396C1587.66 458.303 1581.85 461.715 1575.09 461.715C1565.99 461.715 1560.85 455.61 1560.85 448.01C1560.85 440.469 1565.99 434.364 1575.09 434.364C1582.99 434.364 1588.5 439.032 1589.03 445.257V449.745H1566.95C1567.43 453.994 1569.88 456.388 1575.09 456.388C1578.5 456.388 1581.79 455.311 1582.57 453.396H1588.91ZM1567.13 445.017H1583.05C1582.75 441.546 1579.64 439.691 1575.09 439.691C1570.42 439.691 1567.97 441.606 1567.13 445.017Z" fill="#0D225D"/>
<path d="M1557.87 427.781V433.227H1544.88V461.117H1538.9V433.227H1525.91V427.781H1557.87Z" fill="#0D225D"/>
<path d="M1507.56 453.396C1506.3 458.303 1500.5 461.715 1493.73 461.715C1484.64 461.715 1479.49 455.61 1479.49 448.01C1479.49 440.469 1484.64 434.364 1493.73 434.364C1501.63 434.364 1507.14 439.032 1507.68 445.257V449.745H1485.59C1486.07 453.994 1488.53 456.388 1493.73 456.388C1497.15 456.388 1500.44 455.311 1501.22 453.396H1507.56ZM1485.77 445.017H1501.69C1501.39 441.546 1498.28 439.691 1493.73 439.691C1489.07 439.691 1486.61 441.606 1485.77 445.017Z" fill="#0D225D"/>
<path d="M1466.94 461.117H1458.98L1448.21 434.425H1454.61L1462.99 455.132L1471.31 434.425H1477.71L1466.94 461.117Z" fill="#0D225D"/>
<path d="M1436.79 435.981H1442.84V461.117H1436.79V435.981ZM1435.54 428.559C1435.54 426.584 1436.67 425.028 1439.73 425.028C1442.9 425.028 1444.04 426.584 1444.04 428.559C1444.04 430.474 1442.9 432.031 1439.73 432.031C1436.67 432.031 1435.54 430.474 1435.54 428.559Z" fill="#0D225D"/>
<path d="M1412.58 434.245H1418.51V425.388H1424.55V434.245H1430.18V439.033H1424.55V461.117H1418.51V439.033H1412.58V434.245Z" fill="#0D225D"/>
<path d="M1402.42 445.197C1401.65 441.606 1399.13 439.631 1394.46 439.631C1388.6 439.631 1386.2 442.743 1386.2 448.01C1386.2 453.277 1388.6 456.389 1394.46 456.389C1398.65 456.389 1401.05 454.773 1402.06 451.9H1408.17C1406.67 457.645 1401.88 461.715 1394.46 461.715C1385.37 461.715 1380.22 455.611 1380.22 448.01C1380.22 440.409 1385.37 434.305 1394.46 434.305C1402.36 434.305 1407.27 438.973 1408.41 445.197H1402.42Z" fill="#0D225D"/>
<path d="M1374.25 434.425V461.117H1368.26V457.825C1366.23 460.04 1362.64 461.716 1358.03 461.716C1347.8 461.716 1346.06 452.439 1346.06 448.369V447.771C1346.06 443.701 1347.8 434.425 1358.03 434.425C1362.64 434.425 1366.23 436.101 1368.26 438.315V434.425H1374.25ZM1352.04 447.771C1352.04 453.935 1354.68 455.97 1358.63 456.748C1361.74 457.347 1365.09 456.628 1366.95 453.277C1367.66 451.9 1367.84 450.165 1367.84 448.13V448.01C1367.84 446.335 1367.43 443.941 1366.71 442.684C1365.33 440.29 1361.92 439.213 1358.99 439.213C1354.92 439.213 1352.04 442.744 1352.04 447.771Z" fill="#0D225D"/>
<path d="M1325.25 434.364H1331.23V438.374C1333.27 436.1 1336.26 434.424 1340.87 434.424C1342.37 434.424 1343.74 434.604 1344.88 434.843L1343.2 438.973C1339.37 438.613 1335.3 440.349 1332.97 443.102C1331.95 444.299 1331.23 446.932 1331.23 448.309V461.116H1325.25V434.364Z" fill="#0D225D"/>
<path d="M1320.07 453.396C1318.81 458.303 1313 461.715 1306.24 461.715C1297.14 461.715 1292 455.61 1292 448.01C1292 440.469 1297.14 434.364 1306.24 434.364C1314.14 434.364 1319.65 439.032 1320.19 445.257V449.745H1298.1C1298.58 453.994 1301.03 456.388 1306.24 456.388C1309.65 456.388 1312.94 455.311 1313.72 453.396H1320.07ZM1298.28 445.017H1314.2C1313.9 441.546 1310.79 439.691 1306.24 439.691C1301.57 439.691 1299.12 441.606 1298.28 445.017Z" fill="#0D225D"/>
<path d="M1271.44 434.245H1277.36V425.388H1283.41V434.245H1289.03V439.033H1283.41V461.117H1277.36V439.033H1271.44V434.245Z" fill="#0D225D"/>
<path d="M1239.1 434.364H1245.09V438.254C1247.12 435.98 1250.11 434.364 1254.66 434.364C1264.9 434.364 1266.03 441.426 1266.03 445.496V461.116H1260.05V445.496C1260.05 441.965 1258.19 440.289 1254.66 439.751C1250.29 439.092 1245.45 441.785 1245.09 445.855V461.116H1239.1V434.364Z" fill="#0D225D"/>
<path d="M1224.75 427.781H1230.74V461.117H1224.75V427.781Z" fill="#0D225D"/>
<path d="M1202.01 425.388V461.117H1196.02V457.825C1193.99 460.04 1190.4 461.715 1185.79 461.715C1175.56 461.715 1173.82 452.439 1173.82 448.369V447.771C1173.82 443.701 1175.56 434.425 1185.79 434.425C1190.4 434.425 1193.99 436.1 1196.02 438.315V425.388H1202.01ZM1179.81 447.771C1179.81 453.935 1182.44 455.97 1186.39 456.748C1189.5 457.347 1192.85 456.628 1194.71 453.277C1195.43 451.9 1195.61 450.165 1195.61 448.13V448.01C1195.61 446.335 1195.19 443.941 1194.47 442.684C1193.09 440.29 1189.68 439.213 1186.75 439.213C1182.68 439.213 1179.81 442.744 1179.81 447.771Z" fill="#0D225D"/>
<path d="M1171.03 453.396C1169.77 458.303 1163.97 461.715 1157.21 461.715C1148.11 461.715 1142.96 455.61 1142.96 448.01C1142.96 440.469 1148.11 434.364 1157.21 434.364C1165.11 434.364 1170.61 439.032 1171.15 445.257V449.745H1149.07C1149.55 453.994 1152 456.388 1157.21 456.388C1160.62 456.388 1163.91 455.311 1164.69 453.396H1171.03ZM1149.25 445.017H1165.17C1164.87 441.546 1161.75 439.691 1157.21 439.691C1152.54 439.691 1150.08 441.606 1149.25 445.017Z" fill="#0D225D"/>
<path d="M1122.15 434.364H1128.14V438.374C1130.17 436.1 1133.17 434.424 1137.77 434.424C1139.27 434.424 1140.65 434.604 1141.78 434.843L1140.11 438.973C1136.28 438.613 1132.21 440.349 1129.87 443.102C1128.86 444.299 1128.14 446.932 1128.14 448.309V461.116H1122.15V434.364Z" fill="#0D225D"/>
<path d="M1116.97 453.396C1115.71 458.303 1109.91 461.715 1103.14 461.715C1094.05 461.715 1088.9 455.61 1088.9 448.01C1088.9 440.469 1094.05 434.364 1103.14 434.364C1111.04 434.364 1116.55 439.032 1117.09 445.257V449.745H1095C1095.48 453.994 1097.94 456.388 1103.14 456.388C1106.55 456.388 1109.85 455.311 1110.62 453.396H1116.97ZM1095.18 445.017H1111.1C1110.8 441.546 1107.69 439.691 1103.14 439.691C1098.48 439.691 1096.02 441.606 1095.18 445.017Z" fill="#0D225D"/>
<path d="M1068.34 434.245H1074.27V425.388H1080.31V434.245H1085.94V439.033H1080.31V461.117H1074.27V439.033H1068.34V434.245Z" fill="#0D225D"/>
<path d="M1036 434.364H1041.99V438.254C1044.02 435.98 1047.02 434.364 1051.57 434.364C1061.8 434.364 1062.94 441.426 1062.94 445.496V461.116H1056.95V445.496C1056.95 441.965 1055.1 440.289 1051.57 439.751C1047.2 439.092 1042.35 441.785 1041.99 445.855V461.116H1036V434.364Z" fill="#0D225D"/>
<path d="M1030.82 453.396C1029.56 458.303 1023.76 461.715 1017 461.715C1007.9 461.715 1002.75 455.61 1002.75 448.01C1002.75 440.469 1007.9 434.364 1017 434.364C1024.9 434.364 1030.4 439.032 1030.94 445.257V449.745H1008.86C1009.34 453.994 1011.79 456.388 1017 456.388C1020.41 456.388 1023.7 455.311 1024.48 453.396H1030.82ZM1009.04 445.017H1024.96C1024.66 441.546 1021.54 439.691 1017 439.691C1012.33 439.691 1009.87 441.606 1009.04 445.017Z" fill="#0D225D"/>
<path d="M999.756 450.164C997.661 456.987 991.138 461.715 981.562 461.715C970.071 461.715 963.607 453.994 963.607 444.419C963.607 434.304 970.071 426.584 981.562 426.584C992.095 426.584 998.259 432.03 999.696 439.87H993.711C992.634 434.843 988.923 431.97 981.622 431.97C973.063 431.97 969.592 436.459 969.592 444.419C969.592 451.84 973.063 456.328 981.622 456.328C987.547 456.328 992.155 454.114 993.711 450.164H999.756Z" fill="#0D225D"/>
<path d="M916.309 434.364H922.293V438.254C924.328 435.98 927.321 434.364 931.869 434.364C942.103 434.364 943.24 441.426 943.24 445.496V461.116H937.255V445.496C937.255 441.965 935.4 440.289 931.869 439.751C927.5 439.092 922.652 441.785 922.293 445.855V461.116H916.309V434.364Z" fill="#0D225D"/>
<path d="M909.14 434.425V461.117H903.155V457.825C901.12 460.04 897.529 461.716 892.921 461.716C882.687 461.716 880.951 452.439 880.951 448.369V447.771C880.951 443.701 882.687 434.425 892.921 434.425C897.529 434.425 901.12 436.101 903.155 438.315V434.425H909.14ZM886.936 447.771C886.936 453.935 889.569 455.97 893.519 456.748C896.631 457.347 899.983 456.628 901.838 453.277C902.556 451.9 902.736 450.165 902.736 448.13V448.01C902.736 446.335 902.317 443.941 901.599 442.684C900.222 440.29 896.811 439.213 893.878 439.213C889.809 439.213 886.936 442.744 886.936 447.771Z" fill="#0D225D"/>
<path d="M837.452 434.186H843.437V437.717C844.933 435.682 847.207 434.305 850.679 434.305C854.868 434.305 857.322 436.4 858.638 439.332C860.015 436.46 862.409 434.305 867.077 434.305C873.78 434.305 876.174 439.751 876.174 445.437V461.117H870.189V445.437C870.189 441.906 869.351 440.47 867.077 439.692C864.743 438.914 861.87 440.35 860.194 443.103C859.835 443.941 859.835 444.539 859.775 445.557V461.117H853.791V445.437C853.791 441.906 853.013 440.35 850.679 439.692C848.165 438.973 845.771 440.111 844.155 442.385C843.557 443.642 843.497 444.3 843.437 445.557V461.117H837.452V434.186Z" fill="#0D225D"/>
<path d="M830.791 461.116H824.806V457.226C822.771 459.5 819.779 461.715 815.23 461.715C804.996 461.715 803.859 454.054 803.859 449.985V434.364H809.844V449.985C809.844 453.516 811.699 455.79 815.23 456.328C819.599 456.987 824.806 453.097 824.806 449.626V434.364H830.791V461.116Z" fill="#0D225D"/>
<path d="M763.591 427.781H769.576V442.145H790.702V427.781H796.687V461.117H790.702V447.591H769.576V461.117H763.591V427.781Z" fill="#0D225D"/>
<path d="M1877.73 378.61H1878.48V377.86V312.812C1878.48 297.791 1872.04 288.095 1861.91 282.202C1851.85 276.345 1838.2 274.274 1823.77 274.274C1809.98 274.274 1797.89 276.634 1788.83 281.847C1779.74 287.079 1773.71 295.169 1772.08 306.501L1771.96 307.358H1772.82H1799.52H1800.13L1800.25 306.767C1800.97 303.461 1802.6 300.65 1806.1 298.634C1809.65 296.591 1815.18 295.326 1823.77 295.326C1834.05 295.326 1840.17 297.247 1843.73 300.314C1847.25 303.353 1848.4 307.65 1848.4 312.812V316.715C1813.9 314.649 1793.72 317.781 1782.14 324.164C1776.28 327.395 1772.62 331.462 1770.43 336.095C1768.25 340.713 1767.56 345.842 1767.56 351.164C1767.56 361.27 1771.72 368.882 1778.9 373.938C1786.05 378.97 1796.14 381.43 1807.98 381.43C1828.6 381.43 1842.7 373.351 1848.4 366.734V377.86V378.61H1849.15H1877.73ZM1809.08 336.915C1817.12 334.565 1829.79 334.157 1848.4 335.143V348.324C1843.26 356.765 1831.59 362.634 1816.44 362.634C1810.29 362.634 1805.62 361.697 1802.51 359.699C1799.47 357.741 1797.83 354.707 1797.83 350.224C1797.83 346.781 1798.67 344.062 1800.45 341.917C1802.24 339.76 1805.03 338.1 1809.08 336.915Z" fill="#0D225D" stroke="#0D225D" stroke-width="1.5"/>
<path d="M1274.04 375.195C1262.32 375.195 1252.08 371.011 1244.33 364.533C1235.97 369.136 1226.98 372.684 1218.19 375.195V357.421C1223 355.748 1228.02 353.656 1233.04 350.943C1228.65 343.413 1226.34 334.627 1226.34 325.841C1226.34 296.555 1244.54 276.905 1267.96 276.905C1283.03 276.905 1294.11 284.638 1294.11 301.791C1294.11 320.82 1279.68 340.268 1259.38 354.911C1263.15 357.205 1267.53 358.46 1272.55 358.46C1283.01 358.46 1290.12 351.968 1294.73 343.196H1314.81C1308.97 362.643 1293.9 375.195 1274.04 375.195ZM1248.1 341.941C1263.36 331.482 1275.29 317.892 1275.29 304.085C1275.29 298.228 1273.42 293.626 1265.89 293.626C1253.55 293.626 1244.77 307.851 1244.77 326.678C1244.75 331.9 1246.01 337.339 1248.1 341.941Z" fill="#0D225D"/>
<path fill-rule="evenodd" clip-rule="evenodd" d="M1267.97 279.795C1246.49 279.795 1229.23 297.769 1229.23 325.845C1229.23 334.137 1231.42 342.42 1235.54 349.496L1237.04 352.07L1234.41 353.486C1229.91 355.921 1225.41 357.865 1221.08 359.457V371.315C1228.49 368.96 1235.95 365.858 1242.95 362.01L1244.68 361.059L1246.19 362.324C1253.44 368.388 1263.04 372.314 1274.04 372.314C1291.2 372.314 1304.56 362.301 1310.78 346.086H1296.44C1291.5 354.67 1283.82 361.35 1272.56 361.35C1267.03 361.35 1262.12 359.962 1257.89 357.379L1254.17 355.118L1257.7 352.575C1277.72 338.129 1291.23 319.433 1291.23 301.796C1291.23 293.875 1288.69 288.514 1284.79 285.09C1280.82 281.612 1275.04 279.795 1267.97 279.795ZM1223.46 325.845C1223.46 295.349 1242.59 274.024 1267.97 274.024C1275.96 274.024 1283.25 276.074 1288.59 280.75C1293.99 285.482 1297 292.564 1297 301.796C1297 320.916 1283.54 339.843 1264.94 354.357C1267.24 355.153 1269.78 355.579 1272.56 355.579C1281.55 355.579 1287.86 350.09 1292.18 341.86L1292.99 340.315H1318.69L1317.58 344.031C1311.42 364.538 1295.34 378.085 1274.04 378.085C1262.38 378.085 1252.06 374.168 1244.03 367.985C1235.94 372.257 1227.37 375.58 1218.99 377.974L1215.31 379.024V355.375L1217.25 354.701C1221.11 353.355 1225.1 351.737 1229.11 349.741C1225.4 342.387 1223.46 334.113 1223.46 325.845ZM1248.27 301.554C1252.38 295.056 1258.47 290.745 1265.89 290.745C1270.28 290.745 1273.62 292.12 1275.73 294.934C1277.71 297.572 1278.18 300.96 1278.18 304.09C1278.18 311.835 1274.84 319.285 1269.72 326.019C1264.59 332.765 1257.54 338.979 1249.74 344.326L1246.9 346.269L1245.48 343.14C1243.23 338.183 1241.87 332.338 1241.89 326.678M1253.15 304.639C1249.76 309.984 1247.66 317.679 1247.66 326.682L1247.66 326.69C1247.65 330.286 1248.3 334.021 1249.44 337.458C1255.67 332.879 1261.11 327.817 1265.13 322.526C1269.79 316.399 1272.41 310.151 1272.41 304.09C1272.41 301.362 1271.95 299.521 1271.11 298.393C1270.4 297.442 1269.04 296.516 1265.89 296.516C1260.98 296.516 1256.51 299.317 1253.15 304.639Z" fill="#0D225D"/>
</svg>
