<svg width="1436" height="685" viewBox="0 0 1436 685" fill="none" xmlns="http://www.w3.org/2000/svg">
<rect width="1436" height="685" fill="white"/>
<path d="M1231.92 244.43H1231.17V245.18V377.469V378.219H1231.92H1254.07H1254.82V377.469V367.131C1262.69 374.827 1275.66 380.434 1291.97 380.434C1311.19 380.434 1322.51 371.696 1328.98 361.016C1335.41 350.387 1337.03 337.882 1337.03 330.27V328.054C1337.03 320.442 1335.41 307.937 1328.98 297.308C1322.51 286.628 1311.19 277.89 1291.97 277.89C1275.66 277.89 1262.69 283.497 1254.82 291.193V245.18V244.43H1254.07H1231.92ZM1259.61 348.085C1257.04 343.161 1256.38 336.896 1256.38 329.384V328.94C1256.38 325.893 1256.76 322.176 1257.47 318.646C1258.18 315.106 1259.21 311.818 1260.49 309.593C1262.92 305.351 1267.2 302.229 1272.25 300.163C1277.3 298.1 1283.08 297.117 1288.42 297.117C1302.94 297.117 1313.37 309.701 1313.37 328.054C1313.37 339.368 1310.96 346.759 1306.85 351.671C1302.74 356.581 1296.84 359.132 1289.61 360.556C1278.29 362.733 1266.27 360.109 1259.61 348.085Z" fill="#0D225D" stroke="#0D225D" stroke-width="1.5"/>
<path d="M1230.74 243.25H1229.99V244V378.646V379.396H1230.74H1255.25H1256V378.646V369.796C1264.22 376.772 1276.7 381.612 1291.96 381.612C1311.63 381.612 1323.31 372.636 1329.98 361.626C1336.57 350.746 1338.21 338.003 1338.21 330.269V328.053C1338.21 320.319 1336.57 307.576 1329.98 296.696C1323.31 285.686 1311.63 276.71 1291.96 276.71C1276.7 276.71 1264.22 281.55 1256 288.526V244V243.25H1255.25H1230.74ZM1253.32 365.28V376.717H1232.66V245.929H1253.32V293.042V294.967L1254.63 293.549C1255 293.147 1255.38 292.749 1255.78 292.356C1263.32 284.927 1275.93 279.389 1291.96 279.389C1310.63 279.389 1321.48 287.824 1327.69 298.084C1333.94 308.395 1335.53 320.597 1335.53 328.053V330.269C1335.53 337.725 1333.94 349.927 1327.69 360.238C1321.48 370.498 1310.63 378.933 1291.96 378.933C1275.93 378.933 1263.32 373.395 1255.78 365.966C1255.38 365.573 1255 365.175 1254.63 364.773L1253.32 363.355V365.28ZM1259.18 308.844L1259.18 308.846C1257.8 311.274 1256.72 314.744 1256 318.349C1255.27 321.965 1254.87 325.782 1254.87 328.939V329.383C1254.87 336.935 1255.53 343.518 1258.28 348.786L1258.29 348.794L1258.29 348.803C1265.37 361.589 1278.17 364.282 1289.89 362.028L1289.89 362.027C1297.29 360.571 1303.57 357.915 1308 352.632C1312.42 347.351 1314.87 339.562 1314.87 328.053C1314.87 309.179 1304.04 295.616 1288.42 295.616C1282.91 295.616 1276.94 296.627 1271.68 298.774C1266.43 300.918 1261.84 304.222 1259.18 308.844ZM1289.38 359.398C1278.38 361.513 1266.98 358.946 1260.65 347.527C1258.23 342.873 1257.55 336.859 1257.55 329.383V328.939C1257.55 325.979 1257.92 322.34 1258.62 318.878C1259.33 315.387 1260.33 312.241 1261.51 310.176C1263.78 306.235 1267.79 303.256 1272.7 301.253C1277.59 299.255 1283.21 298.294 1288.42 298.294C1302.07 298.294 1312.2 310.112 1312.2 328.053C1312.2 339.214 1309.81 346.292 1305.94 350.913C1302.08 355.53 1296.48 357.999 1289.38 359.398Z" fill="#0D225D" stroke="#0D225D" stroke-width="1.5"/>
<path d="M983.275 253.293H982.525V254.043V377.468V378.218H983.275H1094.82H1095.57V377.468V357.304V356.554H1094.82H1004.95V254.043V253.293H1004.2H983.275Z" fill="#0D225D" stroke="#0D225D" stroke-width="1.5"/>
<path d="M1094.07 358.053V376.717H984.024V254.792H1003.45V357.303V358.053H1004.2H1094.07ZM1095.93 355.374H1006.07V252.863V252.113H1005.32H982.161H981.411V252.863V378.646V379.396H982.161H1095.93H1096.68V378.646V356.124V355.374H1095.93Z" fill="#0D225D" stroke="#0D225D" stroke-width="1.5"/>
<path d="M781.396 244.43H780.646V245.18V377.469V378.219H781.396H803.555H804.305V377.469V321.001C804.522 318.842 804.736 317.183 805.766 314.899C809.259 309.563 813.596 305.031 819.006 302.124C824.422 299.214 830.959 297.907 838.897 299.103C845.351 300.087 850.155 302.095 853.347 305.366C856.524 308.622 858.203 313.231 858.203 319.634V377.469V378.219H858.953H881.112H881.862V377.469V319.634C881.862 312.054 880.808 301.561 874.888 292.95C868.931 284.286 858.149 277.668 839.01 277.668C822.907 277.668 811.945 283.083 804.305 290.92V245.18V244.43H803.555H781.396Z" fill="#0D225D" stroke="#0D225D" stroke-width="1.5"/>
<path d="M780.218 243.25H779.468V244V378.646V379.396H780.218H804.734H805.484V378.646V321.059C805.692 318.996 805.893 317.51 806.803 315.466C810.213 310.277 814.4 305.936 819.564 303.161C824.742 300.379 831.019 299.107 838.719 300.267C845.045 301.232 849.561 303.174 852.504 306.189C855.407 309.164 857.024 313.441 857.024 319.633V378.646V379.396H857.774H882.29H883.04V378.646V319.633C883.04 311.98 881.985 301.192 875.859 292.282C869.639 283.234 858.453 276.488 839.01 276.488C823.964 276.488 813.234 281.142 805.484 288.147V244V243.25H804.734H780.218ZM802.805 320.962V376.717H782.146V245.929H802.805V292.82V294.783L804.114 293.32C804.491 292.899 804.878 292.484 805.273 292.075L804.734 291.554L805.273 292.075C812.622 284.482 823.218 279.167 839.01 279.167C857.762 279.167 868.031 285.623 873.652 293.799C879.31 302.029 880.362 312.145 880.362 319.633V376.717H859.703V319.633C859.703 312.962 857.946 307.931 854.421 304.318C850.91 300.72 845.742 298.628 839.123 297.619L839.121 297.618C830.883 296.377 824.015 297.729 818.296 300.802C812.588 303.869 808.071 308.625 804.479 314.126L804.447 314.174L804.424 314.226C803.264 316.777 803.033 318.649 802.809 320.888L802.805 320.925V320.962Z" fill="#0D225D" stroke="#0D225D" stroke-width="1.5"/>
<path d="M744.395 318.683L744.523 319.275H745.128H767.286H768.186L768.024 318.39C765.89 306.71 760.213 296.464 751.339 289.14C742.463 281.814 730.433 277.445 715.656 277.445C698.641 277.445 685.254 283.159 676.121 292.489C666.992 301.816 662.168 314.698 662.168 328.939C662.168 343.18 666.992 356.063 676.121 365.389C685.254 374.72 698.641 380.433 715.656 380.433C743.457 380.433 761.496 365.152 767.126 343.532L767.37 342.593H766.4H743.798H743.268L743.091 343.092C741.258 348.268 738.202 352.276 733.74 355.001C729.267 357.733 723.32 359.212 715.656 359.212C704.926 359.212 697.514 356.367 692.773 351.253C688.022 346.128 685.827 338.59 685.827 328.939C685.827 319.288 688.022 311.75 692.773 306.625C697.514 301.511 704.926 298.667 715.656 298.667C724.199 298.667 730.675 300.474 735.355 303.844C740.022 307.204 742.985 312.178 744.395 318.683Z" fill="#0D225D" stroke="#0D225D" stroke-width="1.5"/>
<path d="M693.087 350.961L693.637 350.451C689.167 345.629 687.005 338.434 687.005 328.938C687.005 319.442 689.167 312.247 693.637 307.426C698.082 302.632 705.126 299.844 715.656 299.844C724.043 299.844 730.251 301.62 734.666 304.799C739.051 307.956 741.882 312.651 743.243 318.932L743.444 319.861L743.572 320.452H744.177H768.7H769.599L769.438 319.567L769.184 318.177C767.005 306.25 761.197 295.747 752.089 288.23C742.977 280.708 730.672 276.266 715.656 276.266C698.366 276.266 684.661 282.078 675.278 291.664C665.906 301.238 660.989 314.431 660.989 328.938C660.989 343.446 665.906 356.638 675.278 366.213C684.661 375.798 698.366 381.611 715.656 381.611C743.965 381.611 762.494 365.994 768.267 343.828L768.651 342.352L768.895 341.413H767.925H742.965H742.435L742.258 341.913L741.98 342.698C740.226 347.649 737.33 351.426 733.126 353.994C728.891 356.58 723.177 358.032 715.656 358.032C705.126 358.032 698.082 355.244 693.637 350.451L693.087 350.961ZM745.727 317.774C744.205 311.265 741.112 306.139 736.231 302.625C731.216 299.014 724.397 297.166 715.656 297.166C704.671 297.166 696.793 300.083 691.673 305.605C686.564 311.116 684.327 319.09 684.327 328.938C684.327 338.787 686.564 346.761 691.673 352.272C696.793 357.794 704.671 360.711 715.656 360.711C723.503 360.711 729.744 359.198 734.522 356.28C739.165 353.444 742.369 349.315 744.323 344.092H765.421C765.4 344.166 765.379 344.24 765.358 344.315C759.574 364.622 742.308 378.932 715.656 378.932C698.99 378.932 686.008 373.345 677.192 364.339C668.373 355.328 663.668 342.839 663.668 328.938C663.668 315.037 668.373 302.548 677.192 293.538C686.008 284.532 698.99 278.944 715.656 278.944C744.058 278.944 761.789 295.4 766.323 317.496C766.342 317.588 766.361 317.681 766.379 317.774H745.727Z" fill="#0D225D" stroke="#0D225D" stroke-width="1.5"/>
<path d="M558.418 254.043V253.293H557.668H439.339H438.589V254.043V274.208V274.958H439.339H486.674V377.468V378.218H487.424H509.583H510.333V377.468V274.958H557.668H558.418V274.208V254.043Z" fill="#0D225D" stroke="#0D225D" stroke-width="1.5"/>
<path d="M438.16 276.135H485.495V378.646V379.396H486.245H510.761H511.511V378.646V276.135H558.846H559.596V275.385V252.863V252.113H558.846H438.16H437.41V252.863V275.385V276.135H438.16ZM508.833 376.717H488.174V274.207V273.457H487.424H440.089V254.792H556.918V273.457H509.583H508.833V274.207V376.717Z" fill="#0D225D" stroke="#0D225D" stroke-width="1.5"/>
<path d="M395.856 253.293H395.106V254.043V377.468V378.218H395.856H418.015H418.765V377.468V254.043V253.293H418.015H395.856Z" fill="#0D225D" stroke="#0D225D" stroke-width="1.5"/>
<path d="M394.678 252.113H393.928V252.863V378.646V379.396H394.678H419.194H419.944V378.646V252.863V252.113H419.194H394.678ZM396.606 254.792H417.265V376.717H396.606V254.792Z" fill="#0D225D" stroke="#0D225D" stroke-width="1.5"/>
<path d="M375.185 337.136L375.483 336.166H374.468H352.087H351.577L351.39 336.641C345.794 350.845 329.131 358.989 307.326 358.989C291.608 358.989 280.704 354.869 273.719 347.48C266.727 340.083 263.537 329.278 263.537 315.643C263.537 300.999 266.732 289.695 273.727 282.052C280.71 274.422 291.608 270.302 307.326 270.302C320.754 270.302 330.781 272.945 337.926 277.817C345.053 282.676 349.393 289.807 351.354 298.959L351.481 299.552H352.087H374.246H375.146L374.984 298.667C372.295 283.99 365.171 271.52 353.764 262.726C342.361 253.935 326.734 248.859 307.105 248.859C285.657 248.859 268.831 256.069 257.37 268.065C245.913 280.055 239.878 296.76 239.878 315.643C239.878 333.539 245.92 349.746 257.375 361.482C268.835 373.223 285.657 380.432 307.105 380.432C342.819 380.432 367.314 362.774 375.185 337.136Z" fill="#0D225D" stroke="#0D225D" stroke-width="1.5"/>
<path d="M376.78 335.958L377.077 334.988H376.063H351.285H350.774L350.587 335.463L350.293 336.21C344.958 349.752 328.922 357.812 307.326 357.812C291.804 357.812 281.263 353.746 274.575 346.671C267.869 339.576 264.715 329.116 264.715 315.644C264.715 301.144 267.883 290.185 274.597 282.849C281.279 275.547 291.804 271.482 307.326 271.482C320.614 271.482 330.38 274.099 337.262 278.792C344.098 283.452 348.292 290.299 350.201 299.207L350.401 300.139L350.528 300.732H351.134H375.66H376.56L376.398 299.847L376.143 298.456C373.408 283.523 366.145 270.784 354.484 261.794C342.833 252.812 326.936 247.682 307.105 247.682C285.381 247.682 268.232 254.992 256.517 267.251C244.817 279.496 238.699 296.511 238.699 315.644C238.699 333.806 244.834 350.321 256.532 362.306C268.242 374.303 285.382 381.612 307.105 381.612C343.227 381.612 368.258 363.713 376.312 337.483L376.78 335.958ZM373.284 297.772C373.303 297.866 373.322 297.959 373.34 298.053H352.69C350.602 288.871 346.112 281.583 338.771 276.579C331.292 271.479 320.932 268.803 307.326 268.803C291.358 268.803 279.985 272.993 272.621 281.041C265.268 289.075 262.037 300.816 262.037 315.644C262.037 329.486 265.273 340.73 272.629 348.511C279.992 356.301 291.358 360.49 307.326 360.49C329.163 360.49 346.488 352.411 352.593 337.667H373.444C373.423 337.731 373.401 337.795 373.38 337.86L374.092 338.095L373.38 337.86C365.364 362.117 341.75 378.933 307.105 378.933C286.007 378.933 269.591 371.85 258.449 360.435C247.302 349.015 241.378 333.202 241.378 315.644C241.378 297.079 247.308 280.767 258.454 269.102C269.595 257.443 286.008 250.36 307.105 250.36C326.212 250.36 341.344 255.232 352.394 263.568C363.439 271.902 370.46 283.738 373.284 297.772Z" fill="#0D225D" stroke="#0D225D" stroke-width="1.5"/>
<path d="M99.1787 253.293H98.4287V254.043V377.468V378.218H99.1787H121.338H122.088V377.468V328.139H198.809V377.468V378.218H199.559H221.718H222.468V377.468V254.043V253.293H221.718H199.559H198.809V254.043V306.474H122.088V254.043V253.293H121.338H99.1787Z" fill="#0D225D" stroke="#0D225D" stroke-width="1.5"/>
<path d="M123.266 378.646V329.317H197.63V378.646V379.396H198.38H222.896H223.646V378.646V252.863V252.113H222.896H198.38H197.63V252.863V305.295H123.266V252.863V252.113H122.516H98H97.25V252.863V378.646V379.396H98H122.516H123.266V378.646ZM200.309 307.223V254.792H220.968V376.717H200.309V327.388V326.638H199.559H121.338H120.588V327.388V376.717H99.9287V254.792H120.588V307.223V307.973H121.338H199.559H200.309V307.223Z" fill="#0D225D" stroke="#0D225D" stroke-width="1.5"/>
<path d="M1302.59 425.387H1308.58V438.314C1310.61 436.1 1314.2 434.424 1318.81 434.424C1329.05 434.424 1330.78 443.7 1330.78 447.77V448.368C1330.78 452.438 1329.05 461.714 1318.81 461.714C1314.2 461.714 1310.61 460.039 1308.58 457.824V461.116H1302.59V425.387ZM1309 448.129C1309 450.164 1309.18 451.899 1309.9 453.276C1311.75 456.627 1315.1 457.346 1318.21 456.747C1322.16 455.969 1324.8 453.934 1324.8 447.77C1324.8 442.743 1321.92 439.212 1317.85 439.212C1314.92 439.212 1311.51 440.289 1310.13 442.683C1309.42 443.94 1309 446.334 1309 448.009V448.129Z" fill="#0D225D"/>
<path d="M1296.02 434.424V461.116H1290.04V457.824C1288 460.039 1284.41 461.715 1279.81 461.715C1269.57 461.715 1267.84 452.438 1267.84 448.368V447.77C1267.84 443.7 1269.57 434.424 1279.81 434.424C1284.41 434.424 1288 436.1 1290.04 438.314V434.424H1296.02ZM1273.82 447.77C1273.82 453.934 1276.45 455.969 1280.4 456.747C1283.52 457.346 1286.87 456.627 1288.72 453.276C1289.44 451.899 1289.62 450.164 1289.62 448.129V448.009C1289.62 446.334 1289.2 443.94 1288.48 442.683C1287.11 440.289 1283.7 439.212 1280.76 439.212C1276.69 439.212 1273.82 442.743 1273.82 447.77Z" fill="#0D225D"/>
<path d="M1234.17 427.781H1240.15V455.67H1266.07V461.117H1234.17V427.781Z" fill="#0D225D"/>
<path d="M1188.99 452.738C1190.91 454.473 1197.49 456.329 1200.01 456.329C1204.2 456.329 1207.73 456.568 1208.62 454.114C1209.52 451.72 1205.87 451.241 1200.25 450.523C1193.3 449.685 1185.82 448.788 1186.54 442.145C1187.38 434.005 1198.15 434.185 1201.92 434.424C1207.25 434.783 1212.39 436.998 1213.95 443.521H1208.62C1208.15 441.726 1205.93 440.409 1201.56 439.811C1198.45 439.392 1192.94 439.212 1192.59 442.085C1192.29 444.538 1195.34 445.017 1200.96 445.735C1207.91 446.573 1215.93 448.189 1214.67 454.593C1213.23 462.014 1203.66 461.655 1200.01 461.655C1193.9 461.655 1187.14 458.423 1184.98 455.85L1188.99 452.738Z" fill="#0D225D"/>
<path d="M1183.63 453.395C1182.37 458.302 1176.57 461.714 1169.81 461.714C1160.71 461.714 1155.56 455.609 1155.56 448.009C1155.56 440.468 1160.71 434.363 1169.81 434.363C1177.71 434.363 1183.21 439.031 1183.75 445.256V449.744H1161.67C1162.15 453.993 1164.6 456.387 1169.81 456.387C1173.22 456.387 1176.51 455.31 1177.29 453.395H1183.63ZM1161.85 445.016H1177.77C1177.47 441.545 1174.35 439.69 1169.81 439.69C1165.14 439.69 1162.68 441.605 1161.85 445.016Z" fill="#0D225D"/>
<path d="M1143.55 435.98H1149.59V461.116H1143.55V435.98ZM1142.29 428.558C1142.29 426.583 1143.43 425.027 1146.48 425.027C1149.65 425.027 1150.79 426.583 1150.79 428.558C1150.79 430.474 1149.65 432.03 1146.48 432.03C1143.43 432.03 1142.29 430.474 1142.29 428.558Z" fill="#0D225D"/>
<path d="M1111.85 461.595C1113.22 462.911 1116.87 464.408 1122.08 464.408C1130.22 464.408 1130.4 460.338 1130.28 457.765V457.824C1128.25 460.039 1125.25 461.715 1120.64 461.715C1110.41 461.715 1108.67 452.438 1108.67 448.368V447.77C1108.67 443.7 1110.41 434.424 1120.64 434.424C1125.25 434.424 1128.25 436.1 1130.28 438.314V434.424H1136.26V456.867C1136.26 457.106 1137.7 469.794 1122.08 469.794C1115.44 469.794 1110.89 467.639 1108.67 466.083L1111.85 461.595ZM1114.66 448.368C1114.66 453.336 1116.69 455.49 1120.64 456.149C1124.35 456.747 1127.71 456.029 1128.96 453.276C1129.62 451.84 1129.86 450.164 1129.86 448.129C1129.86 446.334 1129.32 444 1128.72 442.683C1127.59 440.169 1124.18 439.391 1120.64 439.99C1116.63 440.648 1114.66 442.743 1114.66 447.77V448.368Z" fill="#0D225D"/>
<path d="M1092.09 456.328C1097.89 456.328 1100.29 453.276 1100.29 448.069C1100.29 442.862 1097.89 439.81 1092.09 439.81C1086.22 439.81 1083.83 442.862 1083.83 448.069C1083.83 453.276 1086.22 456.328 1092.09 456.328ZM1077.84 448.069C1077.84 440.588 1082.93 434.424 1092.09 434.424C1101.12 434.424 1106.27 440.588 1106.27 448.069C1106.27 455.55 1101.12 461.715 1092.09 461.715C1082.93 461.715 1077.84 455.55 1077.84 448.069Z" fill="#0D225D"/>
<path d="M1066.4 425.445H1072.45V461.115H1066.4V425.445Z" fill="#0D225D"/>
<path d="M1045.62 456.328C1051.43 456.328 1053.82 453.276 1053.82 448.069C1053.82 442.862 1051.43 439.81 1045.62 439.81C1039.76 439.81 1037.36 442.862 1037.36 448.069C1037.36 453.276 1039.76 456.328 1045.62 456.328ZM1031.38 448.069C1031.38 440.588 1036.47 434.424 1045.62 434.424C1054.66 434.424 1059.81 440.588 1059.81 448.069C1059.81 455.55 1054.66 461.715 1045.62 461.715C1036.47 461.715 1031.38 455.55 1031.38 448.069Z" fill="#0D225D"/>
<path d="M999.043 434.363H1005.03V438.253C1007.06 435.979 1010.06 434.363 1014.6 434.363C1024.84 434.363 1025.97 441.425 1025.97 445.495V461.115H1019.99V445.495C1019.99 441.964 1018.13 440.288 1014.6 439.75C1010.23 439.091 1005.39 441.784 1005.03 445.854V461.115H999.043V434.363Z" fill="#0D225D"/>
<path d="M964.911 425.387H970.896V438.254C972.931 435.98 975.923 434.364 980.472 434.364C990.706 434.364 991.843 441.426 991.843 445.496V461.116H985.858V445.496C985.858 441.965 984.003 440.289 980.472 439.75C976.103 439.092 973.23 441.187 971.315 444.119C971.016 444.777 970.956 445.256 970.896 445.855V461.116H964.911V425.387Z" fill="#0D225D"/>
<path d="M952.955 445.197C952.177 441.606 949.663 439.631 944.995 439.631C939.13 439.631 936.736 442.743 936.736 448.01C936.736 453.277 939.13 456.389 944.995 456.389C949.184 456.389 951.578 454.773 952.596 451.9H958.7C957.204 457.645 952.416 461.715 944.995 461.715C935.898 461.715 930.751 455.611 930.751 448.01C930.751 440.409 935.898 434.305 944.995 434.305C952.895 434.305 957.802 438.973 958.939 445.197H952.955Z" fill="#0D225D"/>
<path d="M926.763 453.395C925.506 458.302 919.701 461.714 912.938 461.714C903.841 461.714 898.694 455.609 898.694 448.009C898.694 440.468 903.841 434.363 912.938 434.363C920.838 434.363 926.344 439.031 926.883 445.256V449.744H904.799C905.278 453.993 907.731 456.387 912.938 456.387C916.35 456.387 919.641 455.31 920.419 453.395H926.763ZM904.978 445.016H920.898C920.599 441.545 917.487 439.69 912.938 439.69C908.27 439.69 905.816 441.605 904.978 445.016Z" fill="#0D225D"/>
<path d="M895.718 427.781V433.227H882.731V461.117H876.746V433.227H863.759V427.781H895.718Z" fill="#0D225D"/>
<path d="M845.408 453.395C844.151 458.302 838.346 461.714 831.583 461.714C822.486 461.714 817.339 455.609 817.339 448.009C817.339 440.468 822.486 434.363 831.583 434.363C839.483 434.363 844.989 439.031 845.527 445.256V449.744H823.443C823.922 453.993 826.376 456.387 831.583 456.387C834.994 456.387 838.286 455.31 839.064 453.395H845.408ZM823.623 445.016H839.542C839.243 441.545 836.131 439.69 831.583 439.69C826.915 439.69 824.461 441.605 823.623 445.016Z" fill="#0D225D"/>
<path d="M804.789 461.116H796.829L786.057 434.424H792.46L800.839 455.131L809.158 434.424H815.562L804.789 461.116Z" fill="#0D225D"/>
<path d="M774.643 435.98H780.687V461.116H774.643V435.98ZM773.386 428.558C773.386 426.583 774.523 425.027 777.575 425.027C780.747 425.027 781.884 426.583 781.884 428.558C781.884 430.474 780.747 432.03 777.575 432.03C774.523 432.03 773.386 430.474 773.386 428.558Z" fill="#0D225D"/>
<path d="M750.433 434.244H756.358V425.387H762.402V434.244H768.028V439.032H762.402V461.116H756.358V439.032H750.433V434.244Z" fill="#0D225D"/>
<path d="M740.272 445.197C739.494 441.606 736.98 439.631 732.312 439.631C726.447 439.631 724.053 442.743 724.053 448.01C724.053 453.277 726.447 456.389 732.312 456.389C736.502 456.389 738.895 454.773 739.913 451.9H746.017C744.521 457.645 739.733 461.715 732.312 461.715C723.215 461.715 718.068 455.611 718.068 448.01C718.068 440.409 723.215 434.305 732.312 434.305C740.212 434.305 745.12 438.973 746.257 445.197H740.272Z" fill="#0D225D"/>
<path d="M712.097 434.424V461.116H706.112V457.824C704.077 460.039 700.486 461.715 695.878 461.715C685.644 461.715 683.908 452.438 683.908 448.368V447.77C683.908 443.7 685.644 434.424 695.878 434.424C700.486 434.424 704.077 436.1 706.112 438.314V434.424H712.097ZM689.893 447.77C689.893 453.934 692.526 455.969 696.476 456.747C699.588 457.346 702.94 456.627 704.795 453.276C705.513 451.899 705.693 450.164 705.693 448.129V448.009C705.693 446.334 705.274 443.94 704.556 442.683C703.179 440.289 699.768 439.212 696.835 439.212C692.766 439.212 689.893 442.743 689.893 447.77Z" fill="#0D225D"/>
<path d="M663.099 434.363H669.083V438.373C671.118 436.099 674.111 434.423 678.719 434.423C680.215 434.423 681.592 434.603 682.729 434.842L681.053 438.972C677.223 438.612 673.153 440.348 670.819 443.101C669.802 444.298 669.083 446.931 669.083 448.308V461.115H663.099V434.363Z" fill="#0D225D"/>
<path d="M657.914 453.395C656.658 458.302 650.852 461.714 644.09 461.714C634.993 461.714 629.846 455.609 629.846 448.009C629.846 440.468 634.993 434.363 644.09 434.363C651.989 434.363 657.495 439.031 658.034 445.256V449.744H635.95C636.429 453.993 638.883 456.387 644.09 456.387C647.501 456.387 650.793 455.31 651.571 453.395H657.914ZM636.13 445.016H652.049C651.75 441.545 648.638 439.69 644.09 439.69C639.421 439.69 636.968 441.605 636.13 445.016Z" fill="#0D225D"/>
<path d="M609.287 434.244H615.212V425.387H621.257V434.244H626.882V439.032H621.257V461.116H615.212V439.032H609.287V434.244Z" fill="#0D225D"/>
<path d="M576.951 434.363H582.936V438.253C584.971 435.979 587.963 434.363 592.512 434.363C602.746 434.363 603.883 441.425 603.883 445.495V461.115H597.898V445.495C597.898 441.964 596.043 440.288 592.512 439.75C588.143 439.091 583.295 441.784 582.936 445.854V461.115H576.951V434.363Z" fill="#0D225D"/>
<path d="M562.602 427.781H568.586V461.117H562.602V427.781Z" fill="#0D225D"/>
<path d="M539.858 425.387V461.116H533.874V457.824C531.839 460.039 528.248 461.714 523.64 461.714C513.406 461.714 511.67 452.438 511.67 448.368V447.77C511.67 443.7 513.406 434.424 523.64 434.424C528.248 434.424 531.839 436.1 533.874 438.314V425.387H539.858ZM517.655 447.77C517.655 453.934 520.288 455.969 524.238 456.747C527.35 457.346 530.702 456.627 532.557 453.276C533.275 451.899 533.455 450.164 533.455 448.129V448.009C533.455 446.334 533.036 443.94 532.318 442.683C530.941 440.289 527.53 439.212 524.597 439.212C520.527 439.212 517.655 442.743 517.655 447.77Z" fill="#0D225D"/>
<path d="M508.879 453.395C507.622 458.302 501.817 461.714 495.054 461.714C485.957 461.714 480.811 455.609 480.811 448.009C480.811 440.468 485.957 434.363 495.054 434.363C502.954 434.363 508.46 439.031 508.999 445.256V449.744H486.915C487.394 453.993 489.848 456.387 495.054 456.387C498.466 456.387 501.757 455.31 502.535 453.395H508.879ZM487.095 445.016H503.014C502.715 441.545 499.603 439.69 495.054 439.69C490.386 439.69 487.932 441.605 487.095 445.016Z" fill="#0D225D"/>
<path d="M460.002 434.363H465.987V438.373C468.022 436.099 471.014 434.423 475.622 434.423C477.118 434.423 478.495 434.603 479.632 434.842L477.956 438.972C474.126 438.612 470.056 440.348 467.722 443.101C466.705 444.298 465.987 446.931 465.987 448.308V461.115H460.002V434.363Z" fill="#0D225D"/>
<path d="M454.817 453.395C453.56 458.302 447.755 461.714 440.992 461.714C431.895 461.714 426.748 455.609 426.748 448.009C426.748 440.468 431.895 434.363 440.992 434.363C448.892 434.363 454.398 439.031 454.936 445.256V449.744H432.853C433.331 453.993 435.785 456.387 440.992 456.387C444.403 456.387 447.695 455.31 448.473 453.395H454.817ZM433.032 445.016H448.952C448.652 441.545 445.54 439.69 440.992 439.69C436.324 439.69 433.87 441.605 433.032 445.016Z" fill="#0D225D"/>
<path d="M406.189 434.244H412.114V425.387H418.159V434.244H423.785V439.032H418.159V461.116H412.114V439.032H406.189V434.244Z" fill="#0D225D"/>
<path d="M373.854 434.363H379.838V438.253C381.873 435.979 384.866 434.363 389.414 434.363C399.648 434.363 400.785 441.425 400.785 445.495V461.115H394.8V445.495C394.8 441.964 392.945 440.288 389.414 439.75C385.045 439.091 380.197 441.784 379.838 445.854V461.115H373.854V434.363Z" fill="#0D225D"/>
<path d="M368.668 453.395C367.412 458.302 361.606 461.714 354.843 461.714C345.747 461.714 340.6 455.609 340.6 448.009C340.6 440.468 345.747 434.363 354.843 434.363C362.743 434.363 368.249 439.031 368.788 445.256V449.744H346.704C347.183 453.993 349.637 456.387 354.843 456.387C358.255 456.387 361.546 455.31 362.324 453.395H368.668ZM346.884 445.016H362.803C362.504 441.545 359.392 439.69 354.843 439.69C350.175 439.69 347.722 441.605 346.884 445.016Z" fill="#0D225D"/>
<path d="M337.604 450.164C335.51 456.987 328.986 461.715 319.41 461.715C307.92 461.715 301.456 453.994 301.456 444.419C301.456 434.304 307.92 426.584 319.41 426.584C329.944 426.584 336.108 432.03 337.544 439.87H331.56C330.482 434.843 326.772 431.97 319.47 431.97C310.912 431.97 307.441 436.459 307.441 444.419C307.441 451.84 310.912 456.328 319.47 456.328C325.395 456.328 330.004 454.114 331.56 450.164H337.604Z" fill="#0D225D"/>
<path d="M254.157 434.363H260.142V438.253C262.177 435.979 265.169 434.363 269.718 434.363C279.952 434.363 281.089 441.425 281.089 445.495V461.115H275.104V445.495C275.104 441.964 273.249 440.288 269.718 439.75C265.349 439.091 260.501 441.784 260.142 445.854V461.115H254.157V434.363Z" fill="#0D225D"/>
<path d="M246.988 434.424V461.116H241.003V457.824C238.969 460.039 235.378 461.715 230.769 461.715C220.535 461.715 218.8 452.438 218.8 448.368V447.77C218.8 443.7 220.535 434.424 230.769 434.424C235.378 434.424 238.969 436.1 241.003 438.314V434.424H246.988ZM224.785 447.77C224.785 453.934 227.418 455.969 231.368 456.747C234.48 457.346 237.831 456.627 239.687 453.276C240.405 451.899 240.584 450.164 240.584 448.129V448.009C240.584 446.334 240.166 443.94 239.447 442.683C238.071 440.289 234.66 439.212 231.727 439.212C227.657 439.212 224.785 442.743 224.785 447.77Z" fill="#0D225D"/>
<path d="M175.301 434.184H181.286V437.715C182.782 435.68 185.056 434.303 188.527 434.303C192.717 434.303 195.17 436.398 196.487 439.331C197.863 436.458 200.257 434.303 204.926 434.303C211.629 434.303 214.022 439.749 214.022 445.435V461.115H208.038V445.435C208.038 441.904 207.2 440.468 204.926 439.69C202.591 438.912 199.719 440.348 198.043 443.101C197.684 443.939 197.684 444.537 197.624 445.555V461.115H191.639V445.435C191.639 441.904 190.861 440.348 188.527 439.69C186.014 438.971 183.62 440.109 182.004 442.383C181.405 443.64 181.345 444.298 181.286 445.555V461.115H175.301V434.184Z" fill="#0D225D"/>
<path d="M168.64 461.115H162.655V457.225C160.62 459.499 157.628 461.714 153.079 461.714C142.845 461.714 141.708 454.053 141.708 449.984V434.363H147.693V449.984C147.693 453.515 149.548 455.789 153.079 456.328C157.448 456.986 162.655 453.096 162.655 449.625V434.363H168.64V461.115Z" fill="#0D225D"/>
<path d="M101.439 427.781H107.424V442.145H128.551V427.781H134.535V461.117H128.551V447.591H107.424V461.117H101.439V427.781Z" fill="#0D225D"/>
<path d="M1215.58 378.609H1216.33V377.859V312.811C1216.33 297.79 1209.89 288.094 1199.76 282.201C1189.7 276.344 1176.05 274.273 1161.62 274.273C1147.83 274.273 1135.74 276.633 1126.68 281.846C1117.58 287.078 1111.56 295.168 1109.93 306.5L1109.81 307.357H1110.67H1137.37H1137.97L1138.1 306.766C1138.82 303.46 1140.45 300.649 1143.95 298.633C1147.49 296.59 1153.03 295.325 1161.62 295.325C1171.9 295.325 1178.02 297.246 1181.58 300.313C1185.1 303.352 1186.25 307.649 1186.25 312.811V316.714C1151.75 314.648 1131.57 317.78 1119.99 324.163C1114.13 327.394 1110.47 331.461 1108.28 336.094C1106.1 340.712 1105.41 345.841 1105.41 351.163C1105.41 361.269 1109.57 368.881 1116.75 373.937C1123.9 378.969 1133.99 381.429 1145.83 381.429C1166.45 381.429 1180.55 373.35 1186.25 366.733V377.859V378.609H1187H1215.58ZM1146.93 336.914C1154.96 334.564 1167.64 334.156 1186.25 335.142V348.323C1181.11 356.764 1169.43 362.633 1154.29 362.633C1148.13 362.633 1143.47 361.696 1140.36 359.698C1137.31 357.74 1135.68 354.706 1135.68 350.223C1135.68 346.78 1136.52 344.061 1138.3 341.916C1140.09 339.759 1142.88 338.099 1146.93 336.914Z" fill="#0D225D" stroke="#0D225D" stroke-width="1.5"/>
<path d="M611.887 375.194C600.172 375.194 589.929 371.01 582.182 364.532C573.815 369.135 564.827 372.684 556.041 375.194V357.42C560.845 355.747 565.866 353.655 570.886 350.942C566.5 343.412 564.192 334.626 564.192 325.84C564.192 296.554 582.384 276.904 605.813 276.904C620.875 276.904 631.955 284.637 631.955 301.79C631.955 320.819 617.528 340.267 597.229 354.91C600.995 357.204 605.381 358.459 610.401 358.459C620.861 358.459 627.973 351.967 632.575 343.195H652.657C646.814 362.642 631.753 375.194 611.887 375.194ZM585.948 341.94C601.211 331.481 613.142 317.891 613.142 304.084C613.142 298.227 611.267 293.625 603.736 293.625C591.401 293.625 582.615 307.85 582.615 326.677C582.601 331.899 583.856 337.338 585.948 341.94Z" fill="#0D225D"/>
<path fill-rule="evenodd" clip-rule="evenodd" d="M605.819 279.794C584.341 279.794 567.083 297.768 567.083 325.844C567.083 334.136 569.264 342.419 573.385 349.495L574.884 352.069L572.263 353.485C567.757 355.92 563.262 357.864 558.932 359.456V371.314C566.341 368.959 573.8 365.857 580.797 362.009L582.525 361.058L584.039 362.323C591.291 368.387 600.885 372.313 611.892 372.313C629.05 372.313 642.41 362.3 648.632 346.085H634.287C629.351 354.669 621.665 361.349 610.407 361.349C604.883 361.349 599.973 359.961 595.734 357.378L592.022 355.117L595.547 352.574C615.573 338.128 629.075 319.432 629.075 301.795C629.075 293.874 626.542 288.513 622.636 285.089C618.667 281.611 612.893 279.794 605.819 279.794ZM561.312 325.844C561.312 295.348 580.438 274.023 605.819 274.023C613.807 274.023 621.103 276.073 626.439 280.749C631.838 285.481 634.845 292.563 634.845 301.795C634.845 320.915 621.386 339.842 602.786 354.356C605.091 355.152 607.624 355.578 610.407 355.578C619.4 355.578 625.708 350.089 630.026 341.859L630.836 340.314H656.542L655.426 344.03C649.264 364.537 633.191 378.084 611.892 378.084C600.228 378.084 589.913 374.167 581.874 367.984C573.79 372.256 565.218 375.579 556.839 377.973L553.161 379.023V355.374L555.097 354.7C558.962 353.354 562.952 351.736 566.955 349.74C563.245 342.386 561.312 334.112 561.312 325.844ZM586.117 301.553C590.227 295.055 596.323 290.744 603.741 290.744C608.126 290.744 611.47 292.119 613.578 294.933C615.554 297.571 616.033 300.959 616.033 304.089C616.033 311.834 612.692 319.284 607.571 326.018C602.441 332.764 595.387 338.978 587.584 344.325L584.749 346.268L583.326 343.139C581.074 338.182 579.72 332.337 579.735 326.677M590.994 304.638C587.612 309.983 585.506 317.678 585.506 326.681L585.506 326.689C585.496 330.285 586.147 334.02 587.291 337.457C593.515 332.878 598.954 327.816 602.978 322.525C607.638 316.398 610.262 310.15 610.262 304.089C610.262 301.361 609.803 299.52 608.959 298.392C608.247 297.441 606.888 296.515 603.741 296.515C598.825 296.515 594.36 299.316 590.994 304.638Z" fill="#0D225D"/>
</svg>
